<svg width="32" height="25" viewBox="0 0 32 25" fill="none" xmlns="http://www.w3.org/2000/svg">
<path d="M30.2702 20.7338C31.396 21.4261 31.7405 22.8958 31.0385 24.0153C30.5587 24.7801 29.5464 25.017 28.7772 24.5441L19.5178 18.8504C20.7487 18.2234 21.6031 16.96 21.6336 15.487C21.634 15.4658 21.6329 15.4447 21.6329 15.4235C24.5108 17.1931 27.0467 18.7518 30.2702 20.7338Z" fill="url(#paint0_linear_2749_8766)"/>
<path d="M17.8667 0.00488281C17.884 0.00588654 17.9012 0.0073486 17.9185 0.00878906C17.9729 0.0130809 18.0272 0.0195704 18.0815 0.0283203C18.0871 0.0292347 18.0926 0.0302902 18.0981 0.03125C18.1551 0.0409092 18.2117 0.0527306 18.2681 0.0673828C18.2762 0.069523 18.2843 0.071978 18.2925 0.0742188C18.4102 0.106403 18.526 0.149449 18.6392 0.204102C18.6434 0.206123 18.6477 0.20791 18.6519 0.209961C18.6902 0.228807 18.7295 0.247056 18.7671 0.268555C18.958 0.37778 19.1229 0.514406 19.2622 0.668945C19.2782 0.686536 19.2927 0.705396 19.3081 0.723633C19.3343 0.754808 19.3602 0.785835 19.3843 0.818359C19.4047 0.84568 19.4227 0.87474 19.4419 0.90332C19.4579 0.927461 19.4749 0.950844 19.4897 0.975586C19.4972 0.987806 19.5059 0.999288 19.5132 1.01172L31.6636 21.8623C32.2254 22.827 31.8953 24.0579 30.9263 24.6123C29.957 25.1667 28.7151 24.8349 28.1528 23.8701L17.7534 6.02246L7.354 23.8701C6.79171 24.8347 5.54977 25.1667 4.58057 24.6123C3.61151 24.0578 3.2811 22.826 3.84326 21.8613L15.9937 1.01172C16.0008 0.999484 16.0088 0.987617 16.0161 0.975586C16.031 0.950853 16.048 0.927453 16.064 0.90332C16.0829 0.875127 16.1005 0.846303 16.1206 0.819336C16.1509 0.778304 16.1837 0.739062 16.2173 0.700195C16.2246 0.691822 16.2314 0.683038 16.2388 0.674805C16.276 0.633114 16.3158 0.593497 16.3569 0.554688C16.3652 0.546952 16.373 0.538833 16.3813 0.53125C16.4716 0.448885 16.5708 0.374273 16.6782 0.307617C16.6841 0.304 16.6899 0.300431 16.6958 0.296875C16.7108 0.287785 16.7254 0.277311 16.7407 0.268555C16.8948 0.180455 17.0562 0.116565 17.2202 0.0722656C17.2248 0.0710223 17.2293 0.0695711 17.2339 0.0683594C17.288 0.0541538 17.3424 0.0428059 17.397 0.0332031C17.41 0.0308689 17.423 0.0284507 17.436 0.0263672C17.4822 0.0191769 17.5284 0.0137339 17.5747 0.00976562C17.5981 0.0076503 17.6215 0.00619297 17.645 0.00488281C17.6812 0.00304427 17.7173 0.00186261 17.7534 0.00195312C17.7912 0.00185405 17.8289 0.00287503 17.8667 0.00488281Z" fill="url(#paint1_linear_2749_8766)"/>
<path d="M9.96234 8.25214L7.93641 11.7277L3.99666 9.29989C5.27508 8.65013 6.10459 7.32911 6.10564 5.87321C7.27099 6.59077 8.42803 7.30105 9.96234 8.25214Z" fill="url(#paint2_linear_2749_8766)"/>
<ellipse cx="2.02662" cy="2.00782" rx="2.02662" ry="2.00782" transform="matrix(0.999386 -0.0350443 0.0351422 0.999382 0.12854 3.92285)" fill="url(#paint3_linear_2749_8766)"/>
<ellipse cx="2.02672" cy="2.00772" rx="2.02672" ry="2.00772" transform="matrix(0.997377 -0.0723822 0.0727311 0.997352 15.5863 13.5527)" fill="url(#paint4_linear_2749_8766)"/>
<defs>
<linearGradient id="paint0_linear_2749_8766" x1="18.4265" y1="8.7639" x2="21.8637" y2="20.8758" gradientUnits="userSpaceOnUse">
<stop offset="0.0617003" stop-color="#FFD600"/>
<stop offset="0.488169" stop-color="#F50057"/>
<stop offset="1" stop-color="#AA00FF"/>
</linearGradient>
<linearGradient id="paint1_linear_2749_8766" x1="17.545" y1="-0.715998" x2="17.7047" y2="24.8877" gradientUnits="userSpaceOnUse">
<stop stop-color="#FFD600"/>
<stop offset="0.505208" stop-color="#F50057"/>
<stop offset="1" stop-color="#AA00FF"/>
</linearGradient>
<linearGradient id="paint2_linear_2749_8766" x1="9.14647" y1="4.43926" x2="7.0369" y2="20.9054" gradientUnits="userSpaceOnUse">
<stop stop-color="#FFD600"/>
<stop offset="0.505208" stop-color="#F50057"/>
<stop offset="1" stop-color="#AA00FF"/>
</linearGradient>
<linearGradient id="paint3_linear_2749_8766" x1="3.24259" y1="0.301173" x2="-1.24882" y2="9.67035" gradientUnits="userSpaceOnUse">
<stop stop-color="#FFD600"/>
<stop offset="0.505208" stop-color="#F50057"/>
<stop offset="1" stop-color="#AA00FF"/>
</linearGradient>
<linearGradient id="paint4_linear_2749_8766" x1="1.71723" y1="-2.48713" x2="0.377872" y2="6.90313" gradientUnits="userSpaceOnUse">
<stop stop-color="#FFD600"/>
<stop offset="0.41164" stop-color="#F50057"/>
<stop offset="0.685017" stop-color="#AA00FF"/>
</linearGradient>
</defs>
</svg>
